<?xml version="1.0" encoding="utf-8"?>
<!-- Generator: Adobe Illustrator 22.0.1, SVG Export Plug-In . SVG Version: 6.00 Build 0)  -->
<svg version="1.1" id="Capa_1" xmlns="http://www.w3.org/2000/svg" xmlns:xlink="http://www.w3.org/1999/xlink" x="0px" y="0px"
	 viewBox="-49 141 512 512" style="enable-background:new -49 141 512 512;" xml:space="preserve">
<path d="M455.8,213.6l-65.5-65.5c-9.5-9.5-25-9.5-34.6,0L232.6,271.4c-3.1,3.1-3.1,8.1,0,11.2c3.1,3.1,8.1,3.1,11.2,0L367,159.3
	c1.6-1.6,3.8-2.5,6.1-2.5s4.5,0.9,6.1,2.5l65.5,65.5c1.6,1.6,2.5,3.8,2.5,6.1c0,2.3-0.9,4.5-2.5,6.1l-16.1,16.1L386.5,211
	c-3.1-3.1-8.1-3.1-11.2,0c-3.1,3.1-3.1,8.1,0,11.2l42.1,42.1l-18.4,18.4l-18.5-18.5c-3.1-3.1-8.1-3.1-11.2,0
	c-3.1,3.1-3.1,8.1,0,11.2l18.5,18.5l-18.4,18.4L351,293.6c-3.1-3.1-8.1-3.1-11.2,0c-3.1,3.1-3.1,8.1,0,11.2l18.5,18.5L340,341.7
	l-42.1-42.1c-3.1-3.1-8.1-3.1-11.2,0c-3.1,3.1-3.1,8.1,0,11.2l42.1,42.1l-18.4,18.4L292,352.7c-3.1-3.1-8.1-3.1-11.2,0
	c-3.1,3.1-3.1,8.1,0,11.2l18.5,18.5l-15.5,15.5l-77.7-77.7l14.5-14.5c3.1-3.1,3.1-8.1,0-11.2c-3.1-3.1-8.1-3.1-11.2,0L194.9,309
	L49.2,163.3c-10.1-10.1-23.6-15.7-38-15.7c-14.3,0-27.8,5.6-38,15.7c-10.1,10.1-15.7,23.6-15.7,38c0,14.3,5.6,27.8,15.7,38
	L119,384.9L-41.8,545.8c-9.5,9.5-9.5,25,0,34.6l65.5,65.5c4.6,4.6,10.8,7.2,17.3,7.2s12.7-2.5,17.3-7.2L219.1,485l11.5,11.5
	c3.1,3.1,8.1,3.1,11.2,0c3.1-3.1,3.1-8.1,0-11.2l-15.8-15.8c-0.3-0.5-0.7-0.9-1.1-1.4s-0.9-0.8-1.4-1.1L52.2,295.8l21.2-21.2
	l13.1,13.1c1.5,1.5,3.6,2.3,5.6,2.3s4-0.8,5.6-2.3c3.1-3.1,3.1-8.1,0-11.2l-13.1-13.1l21.2-21.2l83.6,83.6c0,0,0,0,0,0s0,0,0,0
	l88.1,88.1c0.2,0.3,0.5,0.6,0.7,0.8s0.5,0.5,0.8,0.7l117.3,117.3l-21.2,21.2L256.7,435.6c-0.1-0.1-0.1-0.2-0.2-0.2l-47.2-47.2
	c-0.1-0.1-0.2-0.1-0.2-0.2l-83.3-83.3c-3.1-3.1-8.1-3.1-11.2,0c-3.1,3.1-3.1,8.1,0,11.2l249.3,249.3l-21.2,21.2l-75.1-75.1
	c-3.1-3.1-8.1-3.1-11.2,0c-3.1,3.1-3.1,8.1,0,11.2l80.7,80.7c0.8,0.8,1.7,1.4,2.7,1.8l95.5,37.1c1.5,0.6,3.1,0.9,4.6,0.9
	c3.3,0,6.6-1.3,9.1-3.8c3.6-3.6,4.7-9,2.9-13.7l-37.1-95.4c-0.4-1-1-2-1.8-2.7l-118-118l160.9-160.9
	C465.4,238.7,465.4,223.1,455.8,213.6z M-15.6,174.4c14.8-14.8,38.8-14.8,53.6,0l25,25L9.4,253l-25-25
	C-30.3,213.2-30.3,189.2-15.6,174.4z M192.4,489.3l-18.5-18.5c-3.1-3.1-8.1-3.1-11.2,0c-3.1,3.1-3.1,8.1,0,11.2l18.5,18.5
	l-18.4,18.4l-42.1-42.1c-3.1-3.1-8.1-3.1-11.2,0c-3.1,3.1-3.1,8.1,0,11.2l42.1,42.1l-18.4,18.4l-18.5-18.5c-3.1-3.1-8.1-3.1-11.2,0
	c-3.1,3.1-3.1,8.1,0,11.2l18.5,18.5l-18.4,18.4l-18.5-18.5c-3.1-3.1-8.1-3.1-11.2,0c-3.1,3.1-3.1,8.1,0,11.2l18.5,18.5l-18.4,18.4
	l-42.1-42.1c-3.1-3.1-8.1-3.1-11.2,0c-3.1,3.1-3.1,8.1,0,11.2l42.1,42.1L47,634.7c-1.6,1.6-3.8,2.5-6.1,2.5s-4.5-0.9-6.1-2.5
	l-65.5-65.5c-3.4-3.4-3.4-8.9,0-12.2l160.9-160.9l77.7,77.7L192.4,489.3z M67.8,257.8C67.8,257.8,67.8,257.8,67.8,257.8
	C67.8,257.8,67.8,257.8,67.8,257.8L41,284.6l-20.4-20.4l53.6-53.6L94.6,231L67.8,257.8z M356.8,594.5l47.6-47.6l30.3,77.8
	L356.8,594.5z"/>
</svg>
