<?xml version="1.0" encoding="utf-8"?>
<!-- Generator: Adobe Illustrator 22.0.1, SVG Export Plug-In . SVG Version: 6.00 Build 0)  -->
<svg version="1.1" id="Capa_1" xmlns="http://www.w3.org/2000/svg" xmlns:xlink="http://www.w3.org/1999/xlink" x="0px" y="0px"
	 viewBox="-49 141 512 512" style="enable-background:new -49 141 512 512;" xml:space="preserve">
<path d="M381,419.1c0-4.1-3.3-7.5-7.5-7.5s-7.5,3.3-7.5,7.5c0,5.2-4.2,9.5-9.5,9.5c-5.2,0-9.5-4.2-9.5-9.5c0-4.1-3.3-7.5-7.5-7.5
	s-7.5,3.3-7.5,7.5c0,13.4,10.9,24.4,24.4,24.4C370,443.4,381,432.5,381,419.1z"/>
<path d="M443.4,412.8l-21-6.7c-2.7-0.9-4.8-3-5.7-5.7c-4.4-14.1-11.1-27.2-19.8-39.2c-4-5.5-8.4-10.7-13.2-15.6c0,0,0,0,0,0
	c3.1-13.6,4.8-28.9,4.6-42.2c-0.3-19-4.1-30.1-11.6-34c-4-2.1-16.3-8.5-82.8,21.9c-1.6,0.7-3,1.6-4.4,2.6c-4.5-1.2-9.1-2.3-13.7-3.3
	c-0.6-0.1-1.1-0.2-1.7-0.3l0,0c5.4-11.8,8.5-24.5,9.1-37.7c0.2-4.1-3-7.6-7.1-7.8c-4.1-0.2-7.6,3-7.8,7.1c-1,21.7-10,42.1-25.3,57.5
	c-9.2,9.2-19.9,15.9-31.4,20c-19.9-2.8-40.1-2.8-60,0c-11.5-4.2-22.2-10.9-31.4-20c-16.4-16.4-25.4-38.2-25.4-61.4
	c0-23.2,9-45,25.4-61.4c16.4-16.4,38.2-25.4,61.4-25.4s45,9,61.4,25.4c6.6,6.6,12,14.1,16.2,22.3c1.9,3.7,6.3,5.2,10,3.3
	c3.7-1.8,5.2-6.3,3.3-10c-4.9-9.7-11.2-18.5-19-26.2c-19.2-19.2-44.7-29.8-71.9-29.8s-52.7,10.6-71.9,29.8
	C90.6,195.1,80,220.7,80,247.8s10.6,52.7,29.8,71.9c5.5,5.5,11.6,10.3,17.9,14.3c0,0,0,0,0,0c-4.6,1.2-9.2,2.6-13.8,4.1
	c-3.9,1.3-6,5.5-4.7,9.4c1.3,3.9,5.5,6,9.4,4.7c40.6-13.6,85.4-13.6,126,0c0.8,0.3,1.6,0.4,2.4,0.4c3.1,0,6-2,7.1-5.1
	c1.3-3.9-0.8-8.1-4.7-9.4c-4.5-1.5-9.1-2.9-13.8-4.1c0,0,0,0,0,0c6.4-4,12.4-8.8,17.9-14.3c4.9-4.9,9.2-10.3,13-15.9
	c2.1,0.4,4.1,0.8,6.1,1.3c2.7,0.6,5.3,1.2,8,1.9c-0.1,0.3-0.2,0.6-0.2,1c-3.6,17.2-3.4,32.5,0.7,45.3c3.7,11.5,10.3,20.9,19.8,27.8
	c11.1,8.1,24.5,11.6,36.7,11.6c9.1,0,17.6-2,23.8-5.5c7-4,12.9-12.3,17.5-24.9c2.1,2.5,4.2,5.1,6.1,7.7
	c7.8,10.7,13.7,22.4,17.6,34.9c2.3,7.3,8,13.1,15.3,15.5l21,6.7c5.5,1.8,9.2,6.8,9.2,12.6v34.8c0,5.8-3.7,10.8-9.2,12.6l-33.8,10.8
	c-5.4,1.7-10,5.4-12.9,10.5c-13.3,22.9-34.1,41.9-62,56.4c-3.2,1.7-5.5,4.7-6.1,8.2l-10.8,57.3c-0.3,1.6-1.7,2.7-3.3,2.7h-35.2
	c-1.6,0-3-1.1-3.3-2.7l-6-31.7c-1.2-6.2-7-10.4-13.3-9.4c-15.2,2.3-30.8,3.5-46.4,3.5c-11.6,0-23.1-0.6-34.1-1.9
	c-6.1-0.7-11.8,3.5-12.9,9.5l-5.7,30.1c-0.3,1.6-1.7,2.7-3.3,2.7h-35.2c-1.6,0-3-1.1-3.3-2.7l-10.4-54.1c-0.7-3.5-2.9-6.5-6-8.1
	c-47.5-25.4-72.7-67.8-72.7-122.6c0-27.7,6.1-52.2,18-72.8c11.2-19.2,27.5-35.1,48.4-47.3c3.6-2.1,4.8-6.6,2.7-10.2
	c-2.1-3.6-6.6-4.8-10.2-2.7c-40.7,23.5-65.2,59.8-72,105.9v0c-0.7-0.1-1.4-0.1-2.2-0.2c0.1-5-0.8-10-2.7-14.9
	c-4.3-10.7-13.2-18.5-22.6-19.8c-7.4-1-14.5,2.2-19.4,8.6c-7.1,9.4-5.9,16.8-3.7,21.4c3.8,7.7,13.4,13.2,29.4,16.6
	c-0.4,0.7-0.9,1.3-1.5,2c-9.5,11.9-20.6,14.5-27.8,14.7c-4.2,0.1-7.6,3.5-7.6,7.8v0c0,4.2,3.3,7.6,7.5,7.8c0.5,0,1.1,0,1.7,0
	c9.2,0,23.9-3.4,38-21.1c2.2-2.8,4-5.7,5.4-8.8c1.4,0.2,2.8,0.3,4.1,0.4c0,0,0,0,0,0c-0.3,4-0.4,8.1-0.4,12.3c0,31,7.4,58.7,22,82.2
	c13.4,21.7,32.7,39.5,57.3,52.8L96.6,633c1.6,8.6,9.2,14.9,17.9,14.9h35.2c8.8,0,16.3-6.2,17.9-14.9l5.1-27.2
	c10.7,1.1,21.8,1.7,33,1.7c15.4,0,30.7-1.1,45.7-3.2l5.4,28.7c1.6,8.6,9.2,14.9,17.9,14.9H310c8.8,0,16.3-6.2,17.9-14.9l10.5-55.8
	c29.8-15.7,52.2-36.4,66.7-61.5c1-1.8,2.7-3.1,4.5-3.7l33.8-10.8c11.7-3.7,19.6-14.5,19.6-26.8v-34.8
	C463,427.3,455.1,416.6,443.4,412.8z M372.3,324.3c-2.9,24.5-10.6,45.5-18.3,49.9c-8.8,5-29.1,5.9-44.3-5.2
	c-15.2-11.2-20.3-31.2-14.7-58c0,0,0,0,0,0c0.6-2.7,2.5-5,5.1-6.2c37.3-17.1,58.8-22.7,66.8-22.7c1.2,0,2.1,0.1,2.7,0.4
	C372,285,375.2,299.5,372.3,324.3z M-28.1,407c-0.8-1.6,1-4.4,2.2-5.9c1.8-2.4,3.5-2.9,4.8-2.9c0.3,0,0.5,0,0.8,0.1
	c3.4,0.5,8.2,4.2,10.8,10.5c0.6,1.5,1.4,4,1.6,7C-18.3,413.7-26.3,410.6-28.1,407z"/>
<path d="M181.2,294.6c-16.3-0.3-27.3-9.1-27.3-15.5c0-3.2,2.8-7.5,6-7.5c4.3,0,7.9,9.2,21.3,10.2V251c-11.8-4.2-25-8.9-25-25.7
	c0-16.6,12.5-23.1,25-24.4V197c0-1.6,1.6-3,3.8-3c2,0,3.9,1.4,3.9,3v3.5c8.9,0.3,21.5,3,21.5,9.5c0,2.5-1.8,7.5-5.8,7.5
	c-3.2,0-6.6-4.2-15.8-4.9v26.7c11.4,4.2,23.9,10,23.9,27.8c0,16.2-9.7,25.1-23.9,27.1v4.5c0,1.6-2,3-3.9,3c-2.2,0-3.8-1.4-3.8-3
	L181.2,294.6L181.2,294.6z M182,236.8v-23.9c-7.4,0.9-12.6,4.2-12.6,11C169.3,231.4,175,234.2,182,236.8z M188.1,253.9v27.7
	c7.1-1.3,11.6-5.5,11.6-13C199.7,260.3,194.6,256.6,188.1,253.9z"/>
</svg>
