<?xml version="1.0" encoding="utf-8"?>
<!-- Generator: Adobe Illustrator 22.0.1, SVG Export Plug-In . SVG Version: 6.00 Build 0)  -->
<svg version="1.1" id="Capa_1" xmlns="http://www.w3.org/2000/svg" xmlns:xlink="http://www.w3.org/1999/xlink" x="0px" y="0px"
	 viewBox="-49 141 512 512" style="enable-background:new -49 141 512 512;" xml:space="preserve">
<g>
	<path d="M443.5,242.7c-8-19.7-23.1-41.2-42.5-60.5c-19.2-19.2-38.7-32.4-56.5-38.1c-18.3-5.9-34-3.5-44.3,6.8
		c-0.1,0.1-0.2,0.2-0.3,0.4l-59.1,67.5c-2.7,3.1-2.4,7.9,0.7,10.6c3.1,2.7,7.9,2.4,10.6-0.7l58.9-67.3c8.2-8,21.6-5.3,28.9-2.9
		c14.6,4.7,30.9,15.5,47.4,31.4c-6.3-4.2-12.6-7.6-18.7-10c-16.1-6.5-29.2-6-37.1,1.4c-0.1,0.1-0.2,0.2-0.3,0.3
		c-0.1,0.1-0.1,0.1-0.2,0.2c0,0-0.1,0.1-0.1,0.1c0,0-0.1,0.1-0.1,0.1l-111,118.9c-6.4,6.9-20.2,21-38.1,39.1
		c-5.6-7.1-9.9-12.9-12.6-16.6c4.2-4.5,8.2-9,12-13.3l47.8-54.6c2.7-3.1,2.4-7.9-0.7-10.6c-3.1-2.7-7.9-2.4-10.6,0.7L169.8,300
		c-4.7,5.3-9.7,10.9-15,16.5c-7.1,3.9-25.3,14.8-51.9,48.9L-29.2,481c-0.1,0.1-0.1,0.1-0.2,0.2c-7.5,7.1-8.3,19-1.8,27l16.3,20.1
		l-8.2,7.7c-0.1,0.1-0.1,0.1-0.2,0.2c-7.9,7.9-8.6,21.2-1.9,37.6c5.8,14.3,16.8,29.9,30.8,43.9C25.3,637.4,51,653,70,653
		c6.8,0,12.7-2,17.2-6.5c0.1-0.1,0.1-0.1,0.2-0.2l46.3-49.5c2.8-3,2.7-7.8-0.3-10.6c-3-2.8-7.8-2.7-10.6,0.3L76.4,636
		c-6.5,6.3-33.1-1.8-60.2-29c-12.6-12.6-22.4-26.5-27.5-39c-4-9.9-4.6-18-1.5-21.3l101.3-94.9l-4.8,11.7c-1.3,3.2-0.8,6.9,1.5,9.6
		c1.8,2.1,4.4,3.3,7.2,3.3c0.7,0,1.4-0.1,2-0.2l34-7.5l-7.5,34c-0.8,3.4,0.4,6.9,3.1,9.2c2.7,2.2,6.4,2.8,9.6,1.5l21.4-8.8
		l15.7,16.9c1.8,1.9,4.3,3,6.9,3c0.8,0,1.6-0.1,2.5-0.3c0.6-0.2,1.2-0.4,1.8-0.7l-35.2,37.6c-2.8,3-2.7,7.8,0.3,10.6
		c1.4,1.4,3.3,2,5.1,2c2,0,4-0.8,5.5-2.4l47.3-50.5c4.8-5.1,13.7-14.3,25.7-26.4c17.4-8.7,41.5-32.9,51.2-51.3
		c18.9-18.8,33.7-33.2,40.8-39.8l118.9-111c0,0,0.1-0.1,0.1-0.1c0,0,0.1-0.1,0.1-0.1c0.1-0.1,0.1-0.1,0.2-0.2
		c0.1-0.1,0.2-0.2,0.3-0.3C451.7,281.4,452.2,264.1,443.5,242.7z M187.6,364.8c11.5,0,23,4.4,31.7,13.1c17.5,17.5,17.5,45.9,0,63.4
		c-17.5,17.5-45.9,17.5-63.4,0s-17.5-45.9,0-63.4C164.6,369.1,176.1,364.8,187.6,364.8z M157.2,332.5c3.2,4.4,8.2,11.2,14.8,19.3
		c-9.8,2.6-19.1,7.8-26.8,15.4c-6.6,6.6-11.3,14.3-14.1,22.5c-7.1-8.7-11.4-14.9-13.7-18.5C136,348.1,149.5,337.5,157.2,332.5z
		 M79.9,410.5c-3.4,0.8-6.1,3.3-7,6.7c-0.9,3.4,0.1,6.9,2.7,9.3l9.1,8.4l-88.6,83l-15.6-19.2c-1.6-1.9-1.4-4.8,0.4-6.6l125.8-110.1
		c3,4.5,7.7,10.9,14.6,19.3L79.9,410.5z M131.9,452.6l-30.2,6.7l6.2-15c1.5-3.6,0.6-7.8-2.3-10.4l-11.9-11l34.3-7.6
		c0.8,8,3.1,15.8,7,23L131.9,452.6z M174.3,503.4l-11-11.9c-2.6-2.9-6.8-3.8-10.4-2.3l-15,6.2l9.2-41.8c9.9,9.1,22.2,14.3,34.8,15.5
		L174.3,503.4z M193.9,510.6l-7.8,8.3c0.2-0.5,0.4-1.1,0.6-1.7l9.3-42.2c7.7,6.3,14,11.1,18.5,14.3
		C205.1,498.9,198,506.2,193.9,510.6z M226.6,479.5c-3.7-2.6-10-7.2-18.3-13.8c7.9-2.9,15.3-7.5,21.6-13.8
		c7.8-7.8,13-17.3,15.6-27.3c8.5,7,15.7,12.6,20.3,16.1C256.9,454.7,239.6,471.9,226.6,479.5z M312.2,392.4
		c-6.8,6.3-19.9,19.1-37.3,36.4c-5.8-4.4-16-12.4-27.6-22.2c-0.7-14.3-6.5-28.4-17.4-39.3c-10.3-10.3-23.5-16.1-37.1-17.3
		c17.9-18,31.6-32.1,38-39l95.1-101.8c0.8,3.2,1.8,6.6,3.3,10.1c5.8,14.3,16.8,29.9,30.8,43.9c14,14,29.6,25,43.9,30.8
		c3.5,1.4,6.9,2.5,10.1,3.3L312.2,392.4z M430.9,281.5L430.9,281.5c-3.3,3.2-11.5,2.7-21.4-1.4c-12.5-5.1-26.3-14.9-39-27.5
		c-12.6-12.6-22.4-26.5-27.5-39c-4-9.9-4.6-18-1.5-21.3l0.1-0.1c1.4-1.4,3.7-2,6.7-2c3.9,0,9,1.2,14.6,3.5
		c12.5,5.1,26.3,14.9,39,27.5C429.2,248.4,437.3,275,430.9,281.5z"/>
	<path d="M163.1,434c6.5,6.5,15.2,10.1,24.5,10.1s17.9-3.6,24.5-10.1c13.5-13.5,13.5-35.4,0-48.9c-6.5-6.5-15.2-10.1-24.5-10.1
		s-17.9,3.6-24.5,10.1c-6.5,6.5-10.1,15.2-10.1,24.5S156.6,427.5,163.1,434z M173.7,395.7c3.7-3.7,8.6-5.7,13.8-5.7s10.1,2,13.8,5.7
		c7.6,7.6,7.6,20,0,27.7c-3.7,3.7-8.6,5.7-13.8,5.7s-10.1-2-13.8-5.7c-3.7-3.7-5.7-8.6-5.7-13.8S170,399.4,173.7,395.7z"/>
</g>
</svg>
